<svg version="1.1" id="Layer_1" xmlns="http://www.w3.org/2000/svg" xmlns:xlink="http://www.w3.org/1999/xlink" x="0px" y="0px"
	 width="100%" viewBox="0 0 512 336" enable-background="new 0 0 512 336" xml:space="preserve">
<path fill="#000000" opacity="1.000000" stroke="none" 
	d="
M183.574692,153.053619 
	C200.858475,158.263626 202.645676,173.996384 195.730392,189.163437 
	C188.168655,205.748459 165.751633,213.471725 149.235504,205.655655 
	C141.475113,201.983139 136.982178,193.485397 138.104874,184.603714 
	C141.064850,161.187424 159.810303,148.019669 183.574692,153.053619 
M178.896439,168.684921 
	C172.800018,164.532623 165.830795,165.539642 161.275162,171.272507 
	C158.021164,175.367386 156.902878,180.125916 157.010727,185.266251 
	C157.175354,193.111923 162.924820,196.798370 170.285812,193.746475 
	C178.980774,190.141541 183.245087,178.689667 178.896439,168.684921 
z"/>
<path fill="#000000" opacity="1.000000" stroke="none" 
	d="
M237.442886,157.616455 
	C237.797440,154.424393 239.342209,153.276321 242.120438,153.000641 
	C256.144104,151.609146 256.572144,151.955948 254.092957,165.476212 
	C252.773056,172.674210 251.184799,179.822754 249.744995,186.999115 
	C248.756897,191.924149 250.964935,194.587418 256.061981,194.684616 
	C263.321747,194.823074 268.603790,190.764938 270.144623,183.650986 
	C271.971863,175.214767 273.789764,166.771988 275.342041,158.282761 
	C276.028351,154.529266 277.654114,152.974899 281.622131,152.910843 
	C294.717499,152.699402 294.789154,152.578537 292.212067,165.328873 
	C289.677246,177.870239 286.892029,190.361221 284.390198,202.908890 
	C283.670044,206.520615 281.992950,207.587631 278.449768,206.784042 
	C271.933655,205.306213 269.090820,200.969223 268.415863,193.853836 
	C266.112823,196.454178 264.213409,198.562607 262.353577,200.705353 
	C256.278931,207.704041 248.464828,209.477676 239.722916,208.006500 
	C232.243347,206.747757 228.706879,201.372528 230.228638,193.215805 
	C232.423340,181.452026 234.963486,169.752686 237.442886,157.616455 
z"/>
<path fill="#000000" opacity="1.000000" stroke="none" 
	d="
M312.525360,153.022217 
	C316.077332,153.577698 316.057617,155.997482 316.328308,158.364990 
	C317.365723,167.438614 318.479736,176.503525 319.596130,185.567856 
	C319.628296,185.829208 320.006836,186.047913 320.601532,186.701630 
	C325.411438,177.621628 330.485229,168.880844 334.710876,159.747635 
	C337.185852,154.398270 340.456146,152.047058 346.214142,152.923981 
	C349.392487,153.408035 352.822205,152.021973 356.136139,154.216492 
	C354.398987,159.784119 350.723236,164.174561 347.976654,169.020615 
	C341.498566,180.450409 334.654358,191.672134 328.094757,203.056686 
	C326.425964,205.952957 324.423767,207.251740 320.945343,207.274979 
	C306.537384,207.371170 306.391144,207.509735 303.658142,193.404144 
	C301.353149,181.507477 299.512726,169.521439 297.310669,157.603775 
	C296.692413,154.257645 297.809235,152.923630 301.095367,152.977432 
	C304.754700,153.037369 308.415863,152.987640 312.525360,153.022217 
z"/>
<path fill="#000000" opacity="1.000000" stroke="none" 
	d="
M109.766983,208.309082 
	C103.616493,208.629288 98.008591,207.983032 92.407349,207.093170 
	C89.181068,206.580612 87.587639,205.163559 88.525658,201.675888 
	C89.329391,198.687515 88.105240,195.329956 90.296097,192.092361 
	C93.054802,192.920029 95.857048,193.791534 98.679367,194.592270 
	C99.797348,194.909485 100.963814,195.281662 102.101456,195.260818 
	C105.359970,195.201141 109.386978,195.976273 111.010429,192.424973 
	C112.533836,189.092545 109.024094,187.210190 107.066780,185.103470 
	C104.806435,182.670593 102.117744,180.588455 100.116943,177.970459 
	C94.000252,169.966888 96.333572,159.795654 105.298637,155.154007 
	C114.590981,150.342911 124.360252,151.546524 134.115311,153.296692 
	C135.871429,153.611771 136.572556,154.805847 136.442261,156.567261 
	C136.307159,158.393478 136.186493,160.223724 136.153305,162.053909 
	C136.080002,166.097260 134.635345,167.830811 130.276306,166.363586 
	C126.814919,165.198502 123.103783,164.644867 119.445671,165.614090 
	C115.655495,166.618286 114.923744,168.758545 117.463486,171.741241 
	C119.397339,174.012344 121.672546,175.997620 123.838356,178.065567 
	C134.788864,188.521286 132.200668,201.159180 117.988380,206.531403 
	C115.488831,207.476227 112.938614,208.234802 109.766983,208.309082 
z"/>
<path fill="#000000" opacity="1.000000" stroke="none" 
	d="
M391.414215,156.257858 
	C401.261902,150.142731 411.535187,151.647873 421.775482,153.183502 
	C423.994720,153.516281 425.319641,154.785278 424.589996,157.433044 
	C423.764435,160.428970 424.577667,163.782806 422.510132,166.855392 
	C418.800812,167.286209 415.287354,165.111374 411.489105,165.248291 
	C408.655487,165.350418 405.276581,164.969864 404.114471,168.083527 
	C403.120911,170.745590 405.844299,172.461853 407.583923,174.181015 
	C409.594391,176.167892 411.780853,177.983902 413.714386,180.040100 
	C421.407593,188.221451 419.652557,199.475174 409.754181,204.778305 
	C399.869781,210.073898 389.475616,208.785965 379.087036,206.665665 
	C377.884857,206.420303 376.842194,205.724274 376.855194,204.342697 
	C376.892120,200.423965 376.115295,196.404541 378.089081,192.362793 
	C381.205841,192.339935 383.769989,194.222748 386.662506,194.662766 
	C388.788452,194.986176 390.955750,195.571960 393.053223,195.402893 
	C395.287689,195.222778 397.925201,194.892471 398.730286,192.151535 
	C399.430908,189.766174 397.974060,188.014252 396.380768,186.467377 
	C394.352875,184.498566 392.219604,182.636063 390.231232,180.629166 
	C382.324860,172.649216 382.657990,164.004684 391.414215,156.257858 
z"/>
<path fill="#000000" opacity="1.000000" stroke="none" 
	d="
M204.819397,182.073166 
	C207.784012,167.831909 210.808548,154.033157 213.468079,140.164413 
	C214.159927,136.556641 215.800705,135.636063 219.165527,135.575577 
	C232.659515,135.332916 232.761795,135.269180 230.179459,148.195663 
	C226.597656,166.125320 222.760880,184.004227 219.220856,201.941895 
	C218.428085,205.958954 216.617722,207.335052 212.485046,207.307388 
	C199.558228,207.220825 199.584885,207.393616 202.364639,194.725708 
	C203.254944,190.668365 203.955704,186.569458 204.819397,182.073166 
z"/>
<path fill="#000000" opacity="1.000000" stroke="none" 
	d="
M356.448120,166.551636 
	C356.551544,165.963806 356.574646,165.798828 356.598907,165.634018 
	C358.531036,152.491135 359.767242,151.582458 373.124725,152.973984 
	C376.016357,153.275223 377.362213,154.275772 376.691650,157.437546 
	C373.446869,172.737091 370.309296,188.059341 367.118530,203.370392 
	C366.576965,205.969040 365.177277,207.136032 362.273804,207.255783 
	C347.996521,207.844666 347.960938,207.926346 350.685364,194.313675 
	C352.511932,185.187088 354.469421,176.086685 356.448120,166.551636 
z"/>
<path fill="#000000" opacity="1.000000" stroke="none" 
	d="
M361.872803,146.313812 
	C360.165558,142.665161 362.000122,139.646103 362.706207,136.501038 
	C362.943848,135.442520 363.840485,135.006699 364.892487,134.761978 
	C366.718140,134.337326 378.202942,134.841019 380.637421,135.560547 
	C380.706818,136.016541 380.893036,136.512909 380.837219,136.980392 
	C379.651093,146.915680 379.620422,146.967270 369.627319,146.964432 
	C367.160309,146.963745 364.693359,146.701996 361.872803,146.313812 
z"/>
</svg>